/home/xinjie/Newton_Connection/Newton/phystwin_bridge/tools/core/newton_import_ir.py:1209: UserWarning: tabletop_table_box: PhysTwin ground collide_elas is present in IR, but native Newton SemiImplicit has no direct 1-to-1 restitution field for particle-vs-shape contacts. Ground bounce will therefore use native Newton ground ke/kd/kf defaults unless --ground-restitution-mode=approximate-native is selected.
  warnings.warn(message)
ffmpeg version 6.1.1-3ubuntu5+esm7 Copyright (c) 2000-2023 the FFmpeg developers
  built with gcc 13 (Ubuntu 13.3.0-6ubuntu2~24.04)
  configuration: --prefix=/usr --extra-version=3ubuntu5+esm7 --toolchain=hardened --libdir=/usr/lib/x86_64-linux-gnu --incdir=/usr/include/x86_64-linux-gnu --arch=amd64 --enable-gpl --disable-stripping --disable-omx --enable-gnutls --enable-libaom --enable-libass --enable-libbs2b --enable-libcaca --enable-libcdio --enable-libcodec2 --enable-libdav1d --enable-libflite --enable-libfontconfig --enable-libfreetype --enable-libfribidi --enable-libglslang --enable-libgme --enable-libgsm --enable-libharfbuzz --enable-libmp3lame --enable-libmysofa --enable-libopenjpeg --enable-libopenmpt --enable-libopus --enable-librubberband --enable-libshine --enable-libsnappy --enable-libsoxr --enable-libspeex --enable-libtheora --enable-libtwolame --enable-libvidstab --enable-libvorbis --enable-libvpx --enable-libwebp --enable-libx265 --enable-libxml2 --enable-libxvid --enable-libzimg --enable-openal --enable-opencl --enable-opengl --disable-sndio --enable-libvpl --disable-libmfx --enable-libdc1394 --enable-libdrm --enable-libiec61883 --enable-chromaprint --enable-frei0r --enable-ladspa --enable-libbluray --enable-libjack --enable-libpulse --enable-librabbitmq --enable-librist --enable-libsrt --enable-libssh --enable-libsvtav1 --enable-libx264 --enable-libzmq --enable-libzvbi --enable-lv2 --enable-sdl2 --enable-libplacebo --enable-librav1e --enable-pocketsphinx --enable-librsvg --enable-libjxl --enable-shared
  libavutil      58. 29.100 / 58. 29.100
  libavcodec     60. 31.102 / 60. 31.102
  libavformat    60. 16.100 / 60. 16.100
  libavdevice    60.  3.100 / 60.  3.100
  libavfilter     9. 12.100 /  9. 12.100
  libswscale      7.  5.100 /  7.  5.100
  libswresample   4. 12.100 /  4. 12.100
  libpostproc    57.  3.100 / 57.  3.100
Input #0, rawvideo, from 'fd:':
  Duration: N/A, start: 0.000000, bitrate: 663552 kb/s
  Stream #0:0: Video: rawvideo (RGB[24] / 0x18424752), rgb24, 1280x720, 663552 kb/s, 30 tbr, 30 tbn
Stream mapping:
  Stream #0:0 -> #0:0 (rawvideo (native) -> h264 (libx264))
[libx264 @ 0x5aeb86454580] using cpu capabilities: MMX2 SSE2Fast SSSE3 SSE4.2 AVX FMA3 BMI2 AVX2
[libx264 @ 0x5aeb86454580] profile High, level 3.1, 4:2:0, 8-bit
[libx264 @ 0x5aeb86454580] 264 - core 164 r3108 31e19f9 - H.264/MPEG-4 AVC codec - Copyleft 2003-2023 - http://www.videolan.org/x264.html - options: cabac=1 ref=3 deblock=1:0:0 analyse=0x3:0x113 me=hex subme=7 psy=1 psy_rd=1.00:0.00 mixed_ref=1 me_range=16 chroma_me=1 trellis=1 8x8dct=1 cqm=0 deadzone=21,11 fast_pskip=1 chroma_qp_offset=-2 threads=22 lookahead_threads=3 sliced_threads=0 nr=0 decimate=1 interlaced=0 bluray_compat=0 constrained_intra=0 bframes=3 b_pyramid=2 b_adapt=1 b_bias=0 direct=1 weightb=1 open_gop=0 weightp=2 keyint=250 keyint_min=25 scenecut=40 intra_refresh=0 rc_lookahead=40 rc=crf mbtree=1 crf=18.0 qcomp=0.60 qpmin=0 qpmax=69 qpstep=4 ip_ratio=1.40 aq=1:1.00
Output #0, mp4, to '/home/xinjie/Newton_Connection/Newton/phystwin_bridge/results/robot_rope_franka/candidates/20260403_010241_true0p1_shallowcurve_bx054_by020_bz006_c20_clean/presentation/work/robot_rope_tabletop_hero.mp4':
  Metadata:
    encoder         : Lavf60.16.100
  Stream #0:0: Video: h264 (avc1 / 0x31637661), yuv420p(tv, progressive), 1280x720, q=2-31, 30 fps, 15360 tbn
    Metadata:
      encoder         : Lavc60.31.102 libx264
    Side data:
      cpb: bitrate max/min/avg: 0/0/0 buffer size: 0 vbv_delay: N/A
frame=    0 fps=0.0 q=0.0 size=       0kB time=N/A bitrate=N/A speed=N/A    frame=   32 fps=0.0 q=24.0 size=       0kB time=00:00:01.00 bitrate=   0.4kbits/s speed=   2x    [out#0/mp4 @ 0x5aeb86452c80] video:797kB audio:0kB subtitle:0kB other streams:0kB global headers:0kB muxing overhead: 0.378099%
frame=  186 fps=184 q=-1.0 Lsize=     800kB time=00:00:06.10 bitrate=1073.8kbits/s speed=6.03x    
[libx264 @ 0x5aeb86454580] frame I:1     Avg QP:10.85  size: 88082
[libx264 @ 0x5aeb86454580] frame P:47    Avg QP:16.70  size:  8372
[libx264 @ 0x5aeb86454580] frame B:138   Avg QP:23.62  size:  2416
[libx264 @ 0x5aeb86454580] consecutive B-frames:  0.5%  1.1%  1.6% 96.8%
[libx264 @ 0x5aeb86454580] mb I  I16..4: 29.3% 28.2% 42.4%
[libx264 @ 0x5aeb86454580] mb P  I16..4:  0.2%  0.4%  0.3%  P16..4:  4.5%  3.0%  2.5%  0.0%  0.0%    skip:89.2%
[libx264 @ 0x5aeb86454580] mb B  I16..4:  0.0%  0.0%  0.0%  B16..8:  3.7%  1.6%  0.8%  direct: 0.7%  skip:93.1%  L0:35.6% L1:37.9% BI:26.5%
[libx264 @ 0x5aeb86454580] 8x8 transform intra:35.2% inter:17.4%
[libx264 @ 0x5aeb86454580] coded y,uvDC,uvAC intra: 36.6% 43.6% 37.9% inter: 2.5% 0.6% 0.3%
[libx264 @ 0x5aeb86454580] i16 v,h,dc,p: 70% 15%  9%  5%
[libx264 @ 0x5aeb86454580] i8 v,h,dc,ddl,ddr,vr,hd,vl,hu: 36% 11% 34%  1%  6%  5%  3%  1%  3%
[libx264 @ 0x5aeb86454580] i4 v,h,dc,ddl,ddr,vr,hd,vl,hu: 22% 28% 17%  2%  8%  6%  8%  1%  7%
[libx264 @ 0x5aeb86454580] i8c dc,h,v,p: 66% 20% 12%  3%
[libx264 @ 0x5aeb86454580] Weighted P-Frames: Y:0.0% UV:0.0%
[libx264 @ 0x5aeb86454580] ref P L0: 64.7% 12.5% 16.5%  6.2%
[libx264 @ 0x5aeb86454580] ref B L0: 84.8% 13.0%  2.3%
[libx264 @ 0x5aeb86454580] ref B L1: 93.8%  6.2%
[libx264 @ 0x5aeb86454580] kb/s:1051.57
/home/xinjie/Newton_Connection/Newton/phystwin_bridge/tools/core/newton_import_ir.py:1209: UserWarning: tabletop_table_box: PhysTwin ground collide_elas is present in IR, but native Newton SemiImplicit has no direct 1-to-1 restitution field for particle-vs-shape contacts. Ground bounce will therefore use native Newton ground ke/kd/kf defaults unless --ground-restitution-mode=approximate-native is selected.
  warnings.warn(message)
ffmpeg version 6.1.1-3ubuntu5+esm7 Copyright (c) 2000-2023 the FFmpeg developers
  built with gcc 13 (Ubuntu 13.3.0-6ubuntu2~24.04)
  configuration: --prefix=/usr --extra-version=3ubuntu5+esm7 --toolchain=hardened --libdir=/usr/lib/x86_64-linux-gnu --incdir=/usr/include/x86_64-linux-gnu --arch=amd64 --enable-gpl --disable-stripping --disable-omx --enable-gnutls --enable-libaom --enable-libass --enable-libbs2b --enable-libcaca --enable-libcdio --enable-libcodec2 --enable-libdav1d --enable-libflite --enable-libfontconfig --enable-libfreetype --enable-libfribidi --enable-libglslang --enable-libgme --enable-libgsm --enable-libharfbuzz --enable-libmp3lame --enable-libmysofa --enable-libopenjpeg --enable-libopenmpt --enable-libopus --enable-librubberband --enable-libshine --enable-libsnappy --enable-libsoxr --enable-libspeex --enable-libtheora --enable-libtwolame --enable-libvidstab --enable-libvorbis --enable-libvpx --enable-libwebp --enable-libx265 --enable-libxml2 --enable-libxvid --enable-libzimg --enable-openal --enable-opencl --enable-opengl --disable-sndio --enable-libvpl --disable-libmfx --enable-libdc1394 --enable-libdrm --enable-libiec61883 --enable-chromaprint --enable-frei0r --enable-ladspa --enable-libbluray --enable-libjack --enable-libpulse --enable-librabbitmq --enable-librist --enable-libsrt --enable-libssh --enable-libsvtav1 --enable-libx264 --enable-libzmq --enable-libzvbi --enable-lv2 --enable-sdl2 --enable-libplacebo --enable-librav1e --enable-pocketsphinx --enable-librsvg --enable-libjxl --enable-shared
  libavutil      58. 29.100 / 58. 29.100
  libavcodec     60. 31.102 / 60. 31.102
  libavformat    60. 16.100 / 60. 16.100
  libavdevice    60.  3.100 / 60.  3.100
  libavfilter     9. 12.100 /  9. 12.100
  libswscale      7.  5.100 /  7.  5.100
  libswresample   4. 12.100 /  4. 12.100
  libpostproc    57.  3.100 / 57.  3.100
Input #0, rawvideo, from 'fd:':
  Duration: N/A, start: 0.000000, bitrate: 663552 kb/s
  Stream #0:0: Video: rawvideo (RGB[24] / 0x18424752), rgb24, 1280x720, 663552 kb/s, 30 tbr, 30 tbn
Stream mapping:
  Stream #0:0 -> #0:0 (rawvideo (native) -> h264 (libx264))
[libx264 @ 0x5fc6370df580] using cpu capabilities: MMX2 SSE2Fast SSSE3 SSE4.2 AVX FMA3 BMI2 AVX2
[libx264 @ 0x5fc6370df580] profile High, level 3.1, 4:2:0, 8-bit
[libx264 @ 0x5fc6370df580] 264 - core 164 r3108 31e19f9 - H.264/MPEG-4 AVC codec - Copyleft 2003-2023 - http://www.videolan.org/x264.html - options: cabac=1 ref=3 deblock=1:0:0 analyse=0x3:0x113 me=hex subme=7 psy=1 psy_rd=1.00:0.00 mixed_ref=1 me_range=16 chroma_me=1 trellis=1 8x8dct=1 cqm=0 deadzone=21,11 fast_pskip=1 chroma_qp_offset=-2 threads=22 lookahead_threads=3 sliced_threads=0 nr=0 decimate=1 interlaced=0 bluray_compat=0 constrained_intra=0 bframes=3 b_pyramid=2 b_adapt=1 b_bias=0 direct=1 weightb=1 open_gop=0 weightp=2 keyint=250 keyint_min=25 scenecut=40 intra_refresh=0 rc_lookahead=40 rc=crf mbtree=1 crf=18.0 qcomp=0.60 qpmin=0 qpmax=69 qpstep=4 ip_ratio=1.40 aq=1:1.00
Output #0, mp4, to '/home/xinjie/Newton_Connection/Newton/phystwin_bridge/results/robot_rope_franka/candidates/20260403_010241_true0p1_shallowcurve_bx054_by020_bz006_c20_clean/debug/work/robot_rope_tabletop_hero_debug.mp4':
  Metadata:
    encoder         : Lavf60.16.100
  Stream #0:0: Video: h264 (avc1 / 0x31637661), yuv420p(tv, progressive), 1280x720, q=2-31, 30 fps, 15360 tbn
    Metadata:
      encoder         : Lavc60.31.102 libx264
    Side data:
      cpb: bitrate max/min/avg: 0/0/0 buffer size: 0 vbv_delay: N/A
frame=    0 fps=0.0 q=0.0 size=       0kB time=N/A bitrate=N/A speed=N/A    frame=    0 fps=0.0 q=0.0 size=       0kB time=N/A bitrate=N/A speed=N/A    frame=    0 fps=0.0 q=0.0 size=       0kB time=N/A bitrate=N/A speed=N/A    frame=    0 fps=0.0 q=0.0 size=       0kB time=N/A bitrate=N/A speed=N/A    frame=    0 fps=0.0 q=0.0 size=       0kB time=N/A bitrate=N/A speed=N/A    frame=    0 fps=0.0 q=0.0 size=       0kB time=N/A bitrate=N/A speed=N/A    frame=    0 fps=0.0 q=0.0 size=       0kB time=N/A bitrate=N/A speed=N/A    frame=    0 fps=0.0 q=0.0 size=       0kB time=N/A bitrate=N/A speed=N/A    frame=    0 fps=0.0 q=0.0 size=       0kB time=N/A bitrate=N/A speed=N/A    frame=    0 fps=0.0 q=0.0 size=       0kB time=N/A bitrate=N/A speed=N/A    frame=    2 fps=0.4 q=24.0 size=       0kB time=00:00:00.00 bitrate=N/A speed=   0x    frame=    9 fps=1.5 q=24.0 size=       0kB time=00:00:00.23 bitrate=   1.6kbits/s speed=0.0386x    frame=   16 fps=2.4 q=24.0 size=       0kB time=00:00:00.46 bitrate=   0.8kbits/s speed=0.0708x    frame=   23 fps=3.2 q=24.0 size=       0kB time=00:00:00.70 bitrate=   0.5kbits/s speed=0.098x    frame=   30 fps=3.9 q=24.0 size=       0kB time=00:00:00.93 bitrate=   0.4kbits/s speed=0.121x    frame=   37 fps=4.5 q=24.0 size=       0kB time=00:00:01.16 bitrate=   0.3kbits/s speed=0.141x    frame=   44 fps=5.0 q=24.0 size=       0kB time=00:00:01.40 bitrate=   0.3kbits/s speed=0.159x    frame=   51 fps=5.4 q=24.0 size=       0kB time=00:00:01.63 bitrate=   0.2kbits/s speed=0.175x    frame=   58 fps=5.8 q=24.0 size=       0kB time=00:00:01.86 bitrate=   0.2kbits/s speed=0.188x    frame=   65 fps=6.2 q=24.0 size=       0kB time=00:00:02.10 bitrate=   0.2kbits/s speed= 0.2x    frame=   72 fps=6.5 q=24.0 size=       0kB time=00:00:02.33 bitrate=   0.2kbits/s speed=0.211x    frame=   79 fps=6.8 q=24.0 size=     256kB time=00:00:02.56 bitrate= 817.2kbits/s speed=0.221x    frame=   85 fps=7.0 q=24.0 size=     256kB time=00:00:02.76 bitrate= 758.1kbits/s speed=0.228x    frame=   92 fps=7.2 q=24.0 size=     256kB time=00:00:03.00 bitrate= 699.2kbits/s speed=0.236x    frame=   99 fps=7.5 q=24.0 size=     256kB time=00:00:03.23 bitrate= 648.7kbits/s speed=0.244x    frame=  105 fps=7.6 q=24.0 size=     256kB time=00:00:03.43 bitrate= 610.9kbits/s speed=0.249x    frame=  111 fps=7.8 q=24.0 size=     256kB time=00:00:03.63 bitrate= 577.3kbits/s speed=0.254x    frame=  118 fps=7.9 q=24.0 size=     256kB time=00:00:03.86 bitrate= 542.5kbits/s speed=0.26x    [out#0/mp4 @ 0x5fc6370ddc80] video:764kB audio:0kB subtitle:0kB other streams:0kB global headers:0kB muxing overhead: 0.392322%
frame=  186 fps= 12 q=-1.0 Lsize=     767kB time=00:00:06.10 bitrate=1029.6kbits/s speed=0.405x    
[libx264 @ 0x5fc6370df580] frame I:1     Avg QP:12.54  size: 51803
[libx264 @ 0x5fc6370df580] frame P:48    Avg QP:17.91  size:  8831
[libx264 @ 0x5fc6370df580] frame B:137   Avg QP:25.12  size:  2231
[libx264 @ 0x5fc6370df580] consecutive B-frames:  0.5%  2.2%  4.8% 92.5%
[libx264 @ 0x5fc6370df580] mb I  I16..4: 35.2% 42.2% 22.6%
[libx264 @ 0x5fc6370df580] mb P  I16..4:  0.2%  0.3%  0.4%  P16..4:  4.3%  3.0%  2.6%  0.0%  0.0%    skip:89.3%
[libx264 @ 0x5fc6370df580] mb B  I16..4:  0.0%  0.0%  0.0%  B16..8:  3.3%  1.5%  0.8%  direct: 0.7%  skip:93.7%  L0:34.5% L1:41.0% BI:24.5%
[libx264 @ 0x5fc6370df580] 8x8 transform intra:40.3% inter:20.5%
[libx264 @ 0x5fc6370df580] coded y,uvDC,uvAC intra: 26.7% 22.8% 15.1% inter: 2.5% 0.7% 0.3%
[libx264 @ 0x5fc6370df580] i16 v,h,dc,p: 73% 21%  4%  2%
[libx264 @ 0x5fc6370df580] i8 v,h,dc,ddl,ddr,vr,hd,vl,hu: 45% 11% 37%  1%  2%  1%  1%  1%  1%
[libx264 @ 0x5fc6370df580] i4 v,h,dc,ddl,ddr,vr,hd,vl,hu: 27% 25% 14%  3%  7%  7%  6%  4%  6%
[libx264 @ 0x5fc6370df580] i8c dc,h,v,p: 68% 21%  9%  2%
[libx264 @ 0x5fc6370df580] Weighted P-Frames: Y:0.0% UV:0.0%
[libx264 @ 0x5fc6370df580] ref P L0: 66.2% 14.2% 14.2%  5.4%
[libx264 @ 0x5fc6370df580] ref B L0: 87.0% 10.7%  2.3%
[libx264 @ 0x5fc6370df580] ref B L1: 95.8%  4.2%
[libx264 @ 0x5fc6370df580] kb/s:1008.15
/home/xinjie/Newton_Connection/Newton/phystwin_bridge/tools/core/newton_import_ir.py:1209: UserWarning: tabletop_table_box: PhysTwin ground collide_elas is present in IR, but native Newton SemiImplicit has no direct 1-to-1 restitution field for particle-vs-shape contacts. Ground bounce will therefore use native Newton ground ke/kd/kf defaults unless --ground-restitution-mode=approximate-native is selected.
  warnings.warn(message)
ffmpeg version 6.1.1-3ubuntu5+esm7 Copyright (c) 2000-2023 the FFmpeg developers
  built with gcc 13 (Ubuntu 13.3.0-6ubuntu2~24.04)
  configuration: --prefix=/usr --extra-version=3ubuntu5+esm7 --toolchain=hardened --libdir=/usr/lib/x86_64-linux-gnu --incdir=/usr/include/x86_64-linux-gnu --arch=amd64 --enable-gpl --disable-stripping --disable-omx --enable-gnutls --enable-libaom --enable-libass --enable-libbs2b --enable-libcaca --enable-libcdio --enable-libcodec2 --enable-libdav1d --enable-libflite --enable-libfontconfig --enable-libfreetype --enable-libfribidi --enable-libglslang --enable-libgme --enable-libgsm --enable-libharfbuzz --enable-libmp3lame --enable-libmysofa --enable-libopenjpeg --enable-libopenmpt --enable-libopus --enable-librubberband --enable-libshine --enable-libsnappy --enable-libsoxr --enable-libspeex --enable-libtheora --enable-libtwolame --enable-libvidstab --enable-libvorbis --enable-libvpx --enable-libwebp --enable-libx265 --enable-libxml2 --enable-libxvid --enable-libzimg --enable-openal --enable-opencl --enable-opengl --disable-sndio --enable-libvpl --disable-libmfx --enable-libdc1394 --enable-libdrm --enable-libiec61883 --enable-chromaprint --enable-frei0r --enable-ladspa --enable-libbluray --enable-libjack --enable-libpulse --enable-librabbitmq --enable-librist --enable-libsrt --enable-libssh --enable-libsvtav1 --enable-libx264 --enable-libzmq --enable-libzvbi --enable-lv2 --enable-sdl2 --enable-libplacebo --enable-librav1e --enable-pocketsphinx --enable-librsvg --enable-libjxl --enable-shared
  libavutil      58. 29.100 / 58. 29.100
  libavcodec     60. 31.102 / 60. 31.102
  libavformat    60. 16.100 / 60. 16.100
  libavdevice    60.  3.100 / 60.  3.100
  libavfilter     9. 12.100 /  9. 12.100
  libswscale      7.  5.100 /  7.  5.100
  libswresample   4. 12.100 /  4. 12.100
  libpostproc    57.  3.100 / 57.  3.100
Input #0, rawvideo, from 'fd:':
  Duration: N/A, start: 0.000000, bitrate: 663552 kb/s
  Stream #0:0: Video: rawvideo (RGB[24] / 0x18424752), rgb24, 1280x720, 663552 kb/s, 30 tbr, 30 tbn
Stream mapping:
  Stream #0:0 -> #0:0 (rawvideo (native) -> h264 (libx264))
[libx264 @ 0x629153cfc580] using cpu capabilities: MMX2 SSE2Fast SSSE3 SSE4.2 AVX FMA3 BMI2 AVX2
[libx264 @ 0x629153cfc580] profile High, level 3.1, 4:2:0, 8-bit
[libx264 @ 0x629153cfc580] 264 - core 164 r3108 31e19f9 - H.264/MPEG-4 AVC codec - Copyleft 2003-2023 - http://www.videolan.org/x264.html - options: cabac=1 ref=3 deblock=1:0:0 analyse=0x3:0x113 me=hex subme=7 psy=1 psy_rd=1.00:0.00 mixed_ref=1 me_range=16 chroma_me=1 trellis=1 8x8dct=1 cqm=0 deadzone=21,11 fast_pskip=1 chroma_qp_offset=-2 threads=22 lookahead_threads=3 sliced_threads=0 nr=0 decimate=1 interlaced=0 bluray_compat=0 constrained_intra=0 bframes=3 b_pyramid=2 b_adapt=1 b_bias=0 direct=1 weightb=1 open_gop=0 weightp=2 keyint=250 keyint_min=25 scenecut=40 intra_refresh=0 rc_lookahead=40 rc=crf mbtree=1 crf=18.0 qcomp=0.60 qpmin=0 qpmax=69 qpstep=4 ip_ratio=1.40 aq=1:1.00
Output #0, mp4, to '/home/xinjie/Newton_Connection/Newton/phystwin_bridge/results/robot_rope_franka/candidates/20260403_010241_true0p1_shallowcurve_bx054_by020_bz006_c20_clean/validation/work/robot_rope_tabletop_hero_validation.mp4':
  Metadata:
    encoder         : Lavf60.16.100
  Stream #0:0: Video: h264 (avc1 / 0x31637661), yuv420p(tv, progressive), 1280x720, q=2-31, 30 fps, 15360 tbn
    Metadata:
      encoder         : Lavc60.31.102 libx264
    Side data:
      cpb: bitrate max/min/avg: 0/0/0 buffer size: 0 vbv_delay: N/A
frame=    0 fps=0.0 q=0.0 size=       0kB time=N/A bitrate=N/A speed=N/A    frame=   39 fps=0.0 q=24.0 size=       0kB time=00:00:01.23 bitrate=   0.3kbits/s speed=2.47x    [out#0/mp4 @ 0x629153cfac80] video:669kB audio:0kB subtitle:0kB other streams:0kB global headers:0kB muxing overhead: 0.451094%
frame=  186 fps=0.0 q=-1.0 Lsize=     672kB time=00:00:06.10 bitrate= 903.0kbits/s speed=6.75x    
[libx264 @ 0x629153cfc580] frame I:1     Avg QP: 8.86  size: 84611
[libx264 @ 0x629153cfc580] frame P:47    Avg QP:16.89  size:  6675
[libx264 @ 0x629153cfc580] frame B:138   Avg QP:22.91  size:  2075
[libx264 @ 0x629153cfc580] consecutive B-frames:  1.1%  0.0%  0.0% 98.9%
[libx264 @ 0x629153cfc580] mb I  I16..4: 48.0% 10.1% 41.9%
[libx264 @ 0x629153cfc580] mb P  I16..4:  0.1%  0.3%  0.2%  P16..4:  2.7%  2.4%  1.9%  0.0%  0.0%    skip:92.4%
[libx264 @ 0x629153cfc580] mb B  I16..4:  0.0%  0.0%  0.0%  B16..8:  2.9%  1.3%  0.6%  direct: 0.6%  skip:94.6%  L0:35.3% L1:37.4% BI:27.3%
[libx264 @ 0x629153cfc580] 8x8 transform intra:21.6% inter:17.7%
[libx264 @ 0x629153cfc580] coded y,uvDC,uvAC intra: 32.4% 43.4% 39.2% inter: 2.0% 0.5% 0.3%
[libx264 @ 0x629153cfc580] i16 v,h,dc,p: 84%  6%  8%  2%
[libx264 @ 0x629153cfc580] i8 v,h,dc,ddl,ddr,vr,hd,vl,hu: 17% 12% 49%  1%  6%  8%  3%  1%  4%
[libx264 @ 0x629153cfc580] i4 v,h,dc,ddl,ddr,vr,hd,vl,hu: 25% 30% 15%  1%  6%  6%  7%  2%  8%
[libx264 @ 0x629153cfc580] i8c dc,h,v,p: 67% 17% 13%  2%
[libx264 @ 0x629153cfc580] Weighted P-Frames: Y:0.0% UV:0.0%
[libx264 @ 0x629153cfc580] ref P L0: 63.3% 13.8% 17.4%  5.5%
[libx264 @ 0x629153cfc580] ref B L0: 83.7% 13.7%  2.5%
[libx264 @ 0x629153cfc580] ref B L1: 94.1%  5.9%
[libx264 @ 0x629153cfc580] kb/s:883.55
